<svg width="44" height="41" viewBox="0 0 44 41" fill="none" xmlns="http://www.w3.org/2000/svg">
<g clip-path="url(#clip0_74_829)">
<path d="M21.5 20.4999C23.0328 20.4999 24.5312 20.0454 25.8057 19.1938C27.0802 18.3422 28.0735 17.1318 28.6601 15.7157C29.2466 14.2996 29.4001 12.7413 29.1011 11.238C28.8021 9.73462 28.0639 8.3537 26.9801 7.26984C25.8962 6.18598 24.5153 5.44787 23.012 5.14883C21.5086 4.8498 19.9503 5.00327 18.5342 5.58985C17.1181 6.17643 15.9077 7.16977 15.0561 8.44425C14.2045 9.71873 13.75 11.2171 13.75 12.7499C13.7521 14.8047 14.5692 16.7748 16.0222 18.2277C17.4752 19.6807 19.4452 20.4979 21.5 20.4999ZM21.5 7.58325C22.5219 7.58325 23.5208 7.88627 24.3704 8.45399C25.2201 9.02171 25.8823 9.82864 26.2734 10.7727C26.6644 11.7168 26.7667 12.7557 26.5674 13.7579C26.368 14.7601 25.876 15.6807 25.1534 16.4033C24.4308 17.1259 23.5102 17.618 22.508 17.8173C21.5057 18.0167 20.4669 17.9144 19.5228 17.5233C18.5787 17.1322 17.7718 16.47 17.2041 15.6204C16.6364 14.7707 16.3333 13.7718 16.3333 12.7499C16.3333 11.3796 16.8777 10.0655 17.8466 9.09653C18.8156 8.1276 20.1297 7.58325 21.5 7.58325V7.58325Z" fill="white"/>
<path d="M21.5 23.0841C18.4179 23.0875 15.463 24.3134 13.2837 26.4928C11.1043 28.6722 9.87842 31.627 9.875 34.7091C9.875 35.0517 10.0111 35.3802 10.2533 35.6225C10.4956 35.8647 10.8241 36.0008 11.1667 36.0008C11.5092 36.0008 11.8378 35.8647 12.08 35.6225C12.3222 35.3802 12.4583 35.0517 12.4583 34.7091C12.4583 32.3111 13.4109 30.0113 15.1066 28.3157C16.8022 26.6201 19.102 25.6675 21.5 25.6675C23.898 25.6675 26.1978 26.6201 27.8934 28.3157C29.5891 30.0113 30.5417 32.3111 30.5417 34.7091C30.5417 35.0517 30.6778 35.3802 30.92 35.6225C31.1622 35.8647 31.4908 36.0008 31.8333 36.0008C32.1759 36.0008 32.5044 35.8647 32.7467 35.6225C32.9889 35.3802 33.125 35.0517 33.125 34.7091C33.1216 31.627 31.8957 28.6722 29.7163 26.4928C27.537 24.3134 24.5821 23.0875 21.5 23.0841V23.0841Z" fill="white"/>
</g>
<path d="M22 1C33.6657 1 43 9.79578 43 20.5C43 31.2042 33.6657 40 22 40C10.3343 40 1 31.2042 1 20.5C1 9.79578 10.3343 1 22 1Z" stroke="white" stroke-width="2"/>
<defs>
<clipPath id="clip0_74_829">
<rect width="31" height="31" fill="white" transform="translate(6 5)"/>
</clipPath>
</defs>
</svg>
